<svg xmlns="http://www.w3.org/2000/svg" width="255.771" height="60.294" viewBox="0 0 255.771 60.294">
  <g id="Group_1" data-name="Group 1" transform="translate(-219.662 -101.618)">
    <path id="Path_1" data-name="Path 1" d="M348.537,101.618H322.181v8.952a5.021,5.021,0,0,1,2.232.815,4.685,4.685,0,0,0,1.523-1.378,5.475,5.475,0,0,0,.859-1.747,4.152,4.152,0,0,1,2.267-2.567c1.969-.878,6.314,1.07,5.033,4.908l-.491,1.227a.665.665,0,0,1-.516.472c-.183.04-.375.113-.387.373-.007.155-.034.8-.089,1.207-.039.294-.295.236-.575.139a.217.217,0,0,0-.221.049s-1.949,1.517-2.422,1.242a6.1,6.1,0,0,1-2-2.309,4.173,4.173,0,0,0,1.735,2.837.644.644,0,0,0,.617.06c.869-.376,1.165-.577,1.661-.825.654-.327,2.666.391,3.347,1.35a7.144,7.144,0,0,1,4.373,1.526,22.774,22.774,0,0,0,5.489-5.418c-.293-.317-.63-.73-.572-1.135a1.8,1.8,0,0,0-.165-1.658.212.212,0,0,1,.147-.319c.14-.02.709.149.862,1.1a6.406,6.406,0,0,1,.724-2.371,2.731,2.731,0,0,1,1.749.743c-.11,2.112.647,2.737-.306,4.106,0,0-3.488,5.593-6.365,8.041a23.1,23.1,0,0,1-9.981-.907,10.324,10.324,0,0,0-.587-1.971,7.853,7.853,0,0,1-.107,2.16,3.934,3.934,0,0,1-2.315,2.616,25.9,25.9,0,0,0-4.121,6.576,25.265,25.265,0,0,1,11.366,3.652H353.73V106.811A5.193,5.193,0,0,0,348.537,101.618Z" transform="translate(-67.563)" fill="#f46d10"/>
    <path id="Path_2" data-name="Path 2" d="M265.227,122.185a14.488,14.488,0,0,0,1.791-1.154,13.239,13.239,0,0,1-1.822.388,12.387,12.387,0,0,1-6.042-1.365s-5.877,1.293-9.011,1.635a1.56,1.56,0,0,1-.226,1.228,1.8,1.8,0,0,0-.864,1.425.212.212,0,0,1-.309.167c-.124-.068-.477-.545-.026-1.4a6.405,6.405,0,0,1-2,1.461,2.731,2.731,0,0,1-.952-1.645c1.356-1.623,1.126-2.577,2.711-3.1,0,0,.374-.135.987-.353,2.408-.856,8.506-2.992,10.193-3.284,1.3-.226,5.323-.324,5.323-.324a7.846,7.846,0,0,1,.883-.278v-6.723H245.174a3.78,3.78,0,0,0-3.78,3.78v20.687h21.437C264.985,130.676,264.68,125.344,265.227,122.185Z" transform="translate(-14.322 -4.775)" fill="#0f8eaf"/>
    <path id="Path_3" data-name="Path 3" d="M322.743,203.384a8.065,8.065,0,0,1-.493,1.063,48.946,48.946,0,0,0-3.83,11.749,3.235,3.235,0,0,0,1.136,3.031l1.855,1.535a2.759,2.759,0,0,0,1.152.566,4.27,4.27,0,0,1,.758.22.844.844,0,0,1,.312,1.3c-.554.686-2.144,1.535-6.555-.642a16.079,16.079,0,0,0-1.96-.809l-.859-.291a1.282,1.282,0,0,1-.87-1.162,2.968,2.968,0,0,1,.5-1.738c.512-.767,1.105-.964,1.746-4.754.364-2.151.689-4.941.373-6.187a6.234,6.234,0,0,1,.353-3.582,27.889,27.889,0,0,1-7.953.546,24.318,24.318,0,0,1-3.868-.649,7.209,7.209,0,0,0,2.479,1.158,34.381,34.381,0,0,1-5,6.246v17.6h21.469a4.328,4.328,0,0,0,4.328-4.328V202.791h-4.948A4.409,4.409,0,0,1,322.743,203.384Z" transform="translate(-54.279 -66.676)" fill="orange"/>
    <path id="Path_4" data-name="Path 4" d="M221.391,213.475a4.653,4.653,0,0,1-1.729-3.623V189.388H244.79v4.774c-1.813,1.745-1.645,4.735-3.629,6.708a5.6,5.6,0,0,0-5.775,1.791c-1.265,1.552-6.52,4-7.547,4.662a.2.2,0,0,1-.266-.04,2.416,2.416,0,0,0-1.7-.735,1.269,1.269,0,0,0-1.235.716l-.458.934a13.583,13.583,0,0,1-.924,1.612A13.644,13.644,0,0,0,221.391,213.475Zm23.269-9.369a4.71,4.71,0,0,1-2.146,1.648,4.53,4.53,0,0,1-1.147.237,20.362,20.362,0,0,0-5.336,1.176,56.071,56.071,0,0,0-8.216,3.743l-.033.025-3.717,3.466c-.033.031-.062.066-.094.1.117.009.235.018.355.018H244.79V204.065C244.747,204.079,244.7,204.094,244.661,204.107Z" transform="translate(0 -57.843)" fill="#002436"/>
    <text id="TOGETHER_WE_GO_FURTHER" data-name="TOGETHER WE GO FURTHER" transform="translate(298.662 145.447)" fill="#f46d10" font-size="8.5" font-family="Montserrat-SemiBold, Montserrat" font-weight="600" letter-spacing="0.25em"><tspan x="0" y="0">TOGETHER WE GO FURTHER</tspan></text>
    <text id="FIT_CONNECT" data-name="FIT CONNECT" transform="translate(296.433 132.633)" fill="#002436" font-size="28" font-family="Ubuntu-Bold, Ubuntu" font-weight="700" letter-spacing="-0.02em"><tspan x="0" y="0">FIT CONNECT</tspan></text>
  </g>
</svg>
