<svg xmlns="http://www.w3.org/2000/svg" width="83" height="83" viewBox="0 0 83 83">
  <g id="roundedimg03" transform="translate(-3567 -842)">
    <g id="Icon">
      <g id="Base" transform="translate(3569 844)" fill="rgba(255,255,255,0)" stroke="#0f8eaf" stroke-linejoin="round" stroke-width="2">
        <circle cx="39.5" cy="39.5" r="39.5" stroke="none"/>
        <circle cx="39.5" cy="39.5" r="40.5" fill="none"/>
      </g>
    </g>
    <path id="Icon_awesome-project-diagram" data-name="Icon awesome-project-diagram" d="M27,22.5H18a2.25,2.25,0,0,0-2.25,2.25v9A2.25,2.25,0,0,0,18,36h9a2.25,2.25,0,0,0,2.25-2.25v-9A2.25,2.25,0,0,0,27,22.5ZM13.5,2.25A2.25,2.25,0,0,0,11.25,0h-9A2.25,2.25,0,0,0,0,2.25v9A2.25,2.25,0,0,0,2.25,13.5H8.98l5.144,9A4.485,4.485,0,0,1,18,20.25h.02L13.5,12.341V9H29.25V4.5H13.5ZM42.75,0h-9A2.25,2.25,0,0,0,31.5,2.25v9a2.25,2.25,0,0,0,2.25,2.25h9A2.25,2.25,0,0,0,45,11.25v-9A2.25,2.25,0,0,0,42.75,0Z" transform="translate(3586 870)" fill="#0f8eaf"/>
  </g>
</svg>
