<svg xmlns="http://www.w3.org/2000/svg" width="83" height="83" viewBox="0 0 83 83">
  <g id="roundedimg02" transform="translate(-3162 -842)">
    <g id="Base" transform="translate(3164 844)" fill="#0f8eaf" stroke="#002436" stroke-linejoin="round" stroke-width="2">
      <circle cx="39.5" cy="39.5" r="39.5" stroke="none"/>
      <circle cx="39.5" cy="39.5" r="40.5" fill="none"/>
    </g>
    <path id="Icon_ionic-md-heart-empty" data-name="Icon ionic-md-heart-empty" d="M24.581,4.5A8.652,8.652,0,0,0,18,7.587,8.652,8.652,0,0,0,11.419,4.5a7.952,7.952,0,0,0-8.044,8.093c0,5.59,4.971,10.076,12.5,16.995L18,31.5l2.123-1.913c7.53-6.919,12.5-11.4,12.5-16.995A7.952,7.952,0,0,0,24.581,4.5ZM18.9,27.654l-.3.274-.6.548-.6-.548-.3-.274a89.372,89.372,0,0,1-8.627-8.578c-1.969-2.44-2.841-4.437-2.841-6.483A5.848,5.848,0,0,1,7.3,8.423a5.722,5.722,0,0,1,4.12-1.673,6.449,6.449,0,0,1,4.859,2.285L18,11.081l1.723-2.046A6.425,6.425,0,0,1,24.581,6.75a5.75,5.75,0,0,1,4.127,1.673,5.86,5.86,0,0,1,1.666,4.17c0,2.039-.879,4.043-2.841,6.483A89.552,89.552,0,0,1,18.9,27.654Z" transform="translate(3185.5 865.5)" fill="#fff"/>
  </g>
</svg>
