<svg xmlns="http://www.w3.org/2000/svg" width="83" height="83" viewBox="0 0 83 83">
  <g id="roundedimg01" transform="translate(-2755 -842)">
    <g id="Icon">
      <g id="Base" transform="translate(2757 844)" fill="rgba(255,255,255,0)" stroke="#0f8eaf" stroke-linejoin="round" stroke-width="2">
        <circle cx="39.5" cy="39.5" r="39.5" stroke="none"/>
        <circle cx="39.5" cy="39.5" r="40.5" fill="none"/>
      </g>
    </g>
    <g id="Icon_ionic-ios-people" data-name="Icon ionic-ios-people" transform="translate(2773.07 861.964)">
      <path id="Path_5" data-name="Path 5" d="M30.172,28.964c-1.058-.378-2.788-.4-3.553-.69a5.02,5.02,0,0,1-1.644-.765,10.161,10.161,0,0,1-.274-2.693,4.351,4.351,0,0,0,.936-1.323,14.7,14.7,0,0,0,.454-2.6s.624.265.869-.983c.208-1.077.6-1.644.5-2.438s-.548-.6-.548-.6.548-.8.548-3.534c0-2.816-2.126-5.585-6.1-5.585s-6.114,2.778-6.114,5.585c0,2.731.539,3.534.539,3.534s-.444-.189-.548.6.284,1.361.5,2.438c.246,1.257.869.983.869.983a14.846,14.846,0,0,0,.454,2.6,4.351,4.351,0,0,0,.936,1.323,10.161,10.161,0,0,1-.274,2.693,4.831,4.831,0,0,1-1.644.756c-.756.293-2.485.331-3.553.709a6.669,6.669,0,0,0-4.328,6.35h26.3A6.656,6.656,0,0,0,30.172,28.964Z" transform="translate(2.056)" fill="#0f8eaf"/>
      <path id="Path_6" data-name="Path 6" d="M12.468,23.172s2.259-.076,3.156-.879c-1.465-2.221-.671-4.81-.973-7.229a3.987,3.987,0,0,0-4.413-3.856H10.2a4,4,0,0,0-4.375,3.856c-.3,2.41.539,5.292-.964,7.229.9.813,3.166.784,3.166.784h0a4.786,4.786,0,0,1-.095,1.588,2.386,2.386,0,0,1-1.134.52,21.927,21.927,0,0,0-2.448.68A3.979,3.979,0,0,0,2.215,29.38H9.8a6.789,6.789,0,0,1,3.024-2.816,6.346,6.346,0,0,1,2.334-.491s.359-.567-.822-.784a8.056,8.056,0,0,1-1.814-.633C12.345,24.447,12.468,23.172,12.468,23.172Z" transform="translate(0 1.19)" fill="#0f8eaf"/>
      <path id="Path_7" data-name="Path 7" d="M26.964,23.172s-2.259-.076-3.156-.879c1.465-2.221.671-4.81.973-7.229a3.987,3.987,0,0,1,4.413-3.856h.038a4,4,0,0,1,4.375,3.856c.3,2.41-.539,5.292.964,7.229-.9.813-3.166.784-3.166.784h0a4.786,4.786,0,0,0,.094,1.588,2.386,2.386,0,0,0,1.134.52,21.928,21.928,0,0,1,2.448.68,3.979,3.979,0,0,1,2.136,3.515H29.629a6.789,6.789,0,0,0-3.024-2.816,6.346,6.346,0,0,0-2.334-.491s-.359-.567.822-.784a8.056,8.056,0,0,0,1.814-.633C27.087,24.447,26.964,23.172,26.964,23.172Z" transform="translate(7.428 1.19)" fill="#0f8eaf"/>
    </g>
  </g>
</svg>
